<svg width="47" height="58" viewBox="0 0 47 58" fill="none" xmlns="http://www.w3.org/2000/svg">
<path d="M24.3556 13.8029C26.9186 13.8029 30.1314 12.0701 32.0446 9.75984C33.7773 7.66612 35.0408 4.74214 35.0408 1.81815C35.0408 1.42107 35.0047 1.02398 34.9325 0.699097C32.0807 0.807392 28.6513 2.61232 26.5937 5.03093C24.9693 6.87195 23.4892 9.75984 23.4892 12.7199C23.4892 13.1531 23.5614 13.5863 23.5975 13.7307C23.778 13.7668 24.0668 13.8029 24.3556 13.8029ZM15.331 57.4822C18.8325 57.4822 20.3848 55.1357 24.7527 55.1357C29.1928 55.1357 30.1675 57.41 34.0661 57.41C37.8926 57.41 40.4556 53.8723 42.8742 50.4068C45.5816 46.436 46.7006 42.5373 46.7728 42.3569C46.5201 42.2847 39.1921 39.2885 39.1921 30.8775C39.1921 23.5856 44.9679 20.3006 45.2928 20.0479C41.4663 14.5609 35.6545 14.4166 34.0661 14.4166C29.7704 14.4166 26.2688 17.0157 24.0668 17.0157C21.6843 17.0157 18.5437 14.5609 14.8256 14.5609C7.75027 14.5609 0.56665 20.4089 0.56665 31.4551C0.56665 38.3138 3.23794 45.5696 6.52291 50.2624C9.3386 54.2333 11.7933 57.4822 15.331 57.4822Z" fill="black"/>
</svg>
