<svg width="736" height="133" viewBox="0 0 736 133" fill="none" xmlns="http://www.w3.org/2000/svg">
<g clip-path="url(#clip0_29_437)">
<rect x="0.986572" y="0.537231" width="734.633" height="131.498" rx="13.1498" fill="white"/>
<rect x="63.8298" y="0.537231" width="131.498" height="131.498" rx="3.28744" fill="white"/>
<path d="M130.356 49.8029C132.919 49.8029 136.131 48.0701 138.045 45.7598C139.777 43.6661 141.041 40.7421 141.041 37.8182C141.041 37.4211 141.005 37.024 140.932 36.6991C138.081 36.8074 134.651 38.6123 132.594 41.0309C130.969 42.872 129.489 45.7598 129.489 48.7199C129.489 49.1531 129.561 49.5863 129.598 49.7307C129.778 49.7668 130.067 49.8029 130.356 49.8029ZM121.331 93.4822C124.833 93.4822 126.385 91.1357 130.753 91.1357C135.193 91.1357 136.167 93.41 140.066 93.41C143.893 93.41 146.456 89.8723 148.874 86.4068C151.582 82.436 152.701 78.5373 152.773 78.3569C152.52 78.2847 145.192 75.2885 145.192 66.8775C145.192 59.5856 150.968 56.3006 151.293 56.0479C147.466 50.5609 141.654 50.4166 140.066 50.4166C135.77 50.4166 132.269 53.0157 130.067 53.0157C127.684 53.0157 124.544 50.5609 120.826 50.5609C113.75 50.5609 106.567 56.4089 106.567 67.4551C106.567 74.3138 109.238 81.5696 112.523 86.2624C115.339 90.2333 117.793 93.4822 121.331 93.4822Z" fill="black"/>
<path d="M212.509 85.6849C221.139 85.6849 226.661 81.2674 226.661 74.1789V74.1532C226.661 68.657 223.476 65.5237 215.694 63.8543L211.662 62.9554C206.859 61.928 204.907 60.1302 204.907 57.3821V57.3564C204.907 53.8635 208.117 51.8346 212.458 51.8346C216.952 51.8089 219.855 54.0176 220.343 57.0482L220.394 57.3821H225.967L225.942 57.0226C225.531 51.2695 220.394 46.8264 212.535 46.8264C204.676 46.8264 199.128 51.2439 199.103 57.6389V57.6646C199.103 63.1351 202.339 66.628 209.864 68.2204L213.922 69.0936C218.827 70.1466 220.831 71.9958 220.831 74.8466V74.8723C220.831 78.3139 217.466 80.6767 212.74 80.6767C207.784 80.6767 204.214 78.5193 203.905 75.1548L203.88 74.8723H198.229L198.255 75.2062C198.769 81.4472 204.137 85.6849 212.509 85.6849ZM235.445 51.9116C237.346 51.9116 238.938 50.3449 238.938 48.4444C238.938 46.5182 237.346 44.9515 235.445 44.9515C233.519 44.9515 231.952 46.5182 231.952 48.4444C231.952 50.3449 233.519 51.9116 235.445 51.9116ZM232.646 84.786H238.193V56.8941H232.646V84.786ZM257.046 94.6226C264.956 94.6226 269.964 90.5647 269.964 84.221V56.8941H264.417V61.4657H264.083C262.465 58.3324 259.434 56.4062 255.531 56.4062C248.288 56.4062 243.845 62.0308 243.845 69.9925V70.0439C243.845 77.9029 248.262 83.4248 255.428 83.4248C259.255 83.4248 262.337 81.7297 264.032 78.6991H264.443V84.1953C264.443 87.9964 261.72 90.1538 257.123 90.1538C253.348 90.1538 251.087 88.7926 250.625 86.8663L250.599 86.815H244.975L244.923 86.8663C245.591 91.515 249.957 94.6226 257.046 94.6226ZM256.969 78.8275C252.217 78.8275 249.546 75.2062 249.546 70.0182V69.9668C249.546 64.7789 252.217 61.1319 256.969 61.1319C261.669 61.1319 264.545 64.7789 264.545 69.9668V70.0182C264.545 75.2319 261.695 78.8275 256.969 78.8275ZM276.926 84.786H282.499V68.4259C282.499 63.9313 285.042 61.1319 289.125 61.1319C293.209 61.1319 295.135 63.4177 295.135 68.0406V84.786H300.683V66.7308C300.683 60.0788 297.241 56.3548 291 56.3548C286.942 56.3548 284.271 58.1526 282.91 61.1319H282.499V56.8941H276.926V84.786ZM323.645 51.9116C325.546 51.9116 327.138 50.3449 327.138 48.4444C327.138 46.5182 325.546 44.9515 323.645 44.9515C321.719 44.9515 320.152 46.5182 320.152 48.4444C320.152 50.3449 321.719 51.9116 323.645 51.9116ZM320.846 84.786H326.393V56.8941H320.846V84.786ZM333.457 84.786H339.031V68.4259C339.031 63.9313 341.573 61.1319 345.657 61.1319C349.74 61.1319 351.667 63.4177 351.667 68.0406V84.786H357.214V66.7308C357.214 60.0788 353.773 56.3548 347.532 56.3548C343.474 56.3548 340.803 58.1526 339.441 61.1319H339.031V56.8941H333.457V84.786ZM382.643 84.786H388.318L394.072 63.9827H394.508L400.287 84.786H406.014L413.693 56.8941H408.172L403.189 78.4166H402.752L396.999 56.8941H391.709L385.956 78.4166H385.545L380.536 56.8941H374.938L382.643 84.786ZM421.245 51.9116C423.146 51.9116 424.738 50.3449 424.738 48.4444C424.738 46.5182 423.146 44.9515 421.245 44.9515C419.319 44.9515 417.752 46.5182 417.752 48.4444C417.752 50.3449 419.319 51.9116 421.245 51.9116ZM418.446 84.786H423.993V56.8941H418.446V84.786ZM441.587 84.9658C442.666 84.9658 443.693 84.8374 444.592 84.6833V80.2401C443.822 80.3171 443.334 80.3428 442.486 80.3428C439.738 80.3428 438.608 79.11 438.608 76.1051V61.286H444.592V56.8941H438.608V49.857H432.932V56.8941H428.566V61.286H432.932V77.4406C432.932 82.8084 435.449 84.9658 441.587 84.9658ZM450.295 84.786H455.868V68.4259C455.868 63.9313 458.411 61.1319 462.494 61.1319C466.578 61.1319 468.504 63.4177 468.504 68.0406V84.786H474.052V66.7308C474.052 60.0788 470.61 56.3548 464.369 56.3548C460.311 56.3548 457.64 58.1526 456.279 61.1319H455.868V45.9531H450.295V84.786ZM491.904 84.786H497.939L501.304 74.7696H515.481L518.82 84.786H524.881L511.5 47.7253H505.285L491.904 84.786ZM508.161 54.2231H508.598L513.94 70.1466H502.845L508.161 54.2231ZM529.633 94.0833H535.206V80.3685H535.617C537.107 83.3734 540.369 85.2483 544.196 85.2483C551.284 85.2483 555.753 79.7008 555.753 70.8658V70.8144C555.753 62.0308 551.233 56.4062 544.196 56.4062C540.292 56.4062 537.235 58.2297 535.617 61.286H535.206V56.8941H529.633V94.0833ZM542.629 80.4969C537.98 80.4969 535.104 76.8242 535.104 70.8658V70.8144C535.104 64.8559 537.98 61.1832 542.629 61.1832C547.277 61.1832 550.077 64.8045 550.077 70.8144V70.8658C550.077 76.8499 547.277 80.4969 542.629 80.4969ZM561.404 94.0833H566.977V80.3685H567.388C568.878 83.3734 572.14 85.2483 575.967 85.2483C583.055 85.2483 587.524 79.7008 587.524 70.8658V70.8144C587.524 62.0308 583.004 56.4062 575.967 56.4062C572.063 56.4062 569.006 58.2297 567.388 61.286H566.977V56.8941H561.404V94.0833ZM574.4 80.4969C569.751 80.4969 566.875 76.8242 566.875 70.8658V70.8144C566.875 64.8559 569.751 61.1832 574.4 61.1832C579.049 61.1832 581.848 64.8045 581.848 70.8144V70.8658C581.848 76.8499 579.049 80.4969 574.4 80.4969ZM593.432 84.786H599.005V45.9531H593.432V84.786ZM617.961 85.3254C625.1 85.3254 628.953 81.2161 629.878 77.5434L629.929 77.3122L624.561 77.3379L624.458 77.5434C623.791 78.9816 621.659 80.7538 618.089 80.7538C613.492 80.7538 610.564 77.6461 610.461 72.304H630.237V70.3521C630.237 61.9794 625.46 56.3548 617.678 56.3548C609.896 56.3548 604.862 62.1849 604.862 70.8914V70.9171C604.862 79.7521 609.793 85.3254 617.961 85.3254ZM617.704 60.9264C621.479 60.9264 624.279 63.3406 624.715 68.3231H610.538C611.026 63.5204 613.903 60.9264 617.704 60.9264Z" fill="black"/>
</g>
<rect x="2.63029" y="2.18095" width="731.346" height="128.21" rx="11.506" stroke="black" stroke-width="3.28744"/>
<defs>
<clipPath id="clip0_29_437">
<rect x="0.986572" y="0.537231" width="734.633" height="131.498" rx="13.1498" fill="white"/>
</clipPath>
</defs>
</svg>
